<svg height="477pt" viewBox="-29 0 477 477.307" width="477pt" xmlns="http://www.w3.org/2000/svg"><g fill="#0635c9"><path d="m203.835938 445.15625v26.152344c0 3.3125 2.683593 6 6 6 3.3125 0 6-2.6875 6-6v-26.152344c0-3.3125-2.6875-6-6-6-3.316407 0-6 2.6875-6 6zm0 0"/><path d="m6.152344 223.625h26.152344c3.3125 0 6-2.683594 6-6 0-3.3125-2.6875-6-6-6h-26.152344c-3.3125 0-6 2.6875-6 6 0 3.316406 2.6875 6 6 6zm0 0"/><path d="m387.367188 223.625h26.148437c3.3125 0 6-2.683594 6-6 0-3.3125-2.6875-6-6-6h-26.148437c-3.316407 0-6 2.6875-6 6 0 3.316406 2.683593 6 6 6zm0 0"/><path d="m384.96875 401.25c2.34375 2.34375 6.144531 2.34375 8.488281 0s2.34375-6.144531 0-8.488281l-18.492187-18.488281c-2.34375-2.34375-6.140625-2.34375-8.484375 0s-2.34375 6.140624 0 8.484374zm0 0"/><path d="m26.210938 401.246094c2.34375 2.34375 6.144531 2.34375 8.488281 0l18.488281-18.488282c2.34375-2.34375 2.34375-6.144531 0-8.484374-2.339844-2.34375-6.140625-2.34375-8.484375-.003907l-18.492187 18.492188c-2.34375 2.34375-2.34375 6.144531 0 8.484375zm0 0"/></g><path d="m256.5 223.820312c-24.464844 0-36.867188 4.863282-48.855469 9.566407-11.457031 4.492187-22.277343 8.734375-44.476562 8.734375s-33.019531-4.242188-44.476563-8.734375c-10.871094-4.265625-22.113281-8.671875-42.417968-9.445313l-.457032 11.992188c18.273438.699218 28.097656 4.546875 38.5 8.625 11.988282 4.699218 24.386719 9.5625 48.855469 9.5625s36.867187-4.863282 48.859375-9.5625c11.453125-4.496094 22.273438-8.738282 44.472656-8.738282 22.199219 0 33.023438 4.242188 44.476563 8.738282 11.667969 4.574218 23.730469 9.304687 46.933593 9.554687l.125-12c-21-.226562-31.527343-4.355469-42.675781-8.726562-11.996093-4.699219-24.394531-9.566407-48.863281-9.566407zm0 0" fill="#1ae5be"/><path d="m256.5 175.722656c-24.464844 0-36.867188 4.863282-48.855469 9.5625-11.457031 4.492188-22.277343 8.734375-44.476562 8.734375-22.402344 0-33.242188-4.253906-44.71875-8.757812-5.675781-2.347657-11.488281-4.339844-17.410157-5.972657l-3.046874 11.609376c5.46875 1.511718 10.835937 3.359374 16.074218 5.535156 12.007813 4.710937 24.429688 9.585937 49.097656 9.585937 24.46875 0 36.867188-4.859375 48.859376-9.5625 11.457031-4.492187 22.277343-8.738281 44.476562-8.738281 22.25 0 33.082031 4.273438 44.546875 8.792969 8.089844 3.1875 16.457031 6.484375 28.671875 8.265625l1.730469-11.875c-10.839844-1.578125-18.199219-4.480469-26-7.554688-12.003907-4.734375-24.414063-9.625-48.949219-9.625zm0 0" fill="#1ae5be"/><path d="m264.046875 271.265625c-26.160156 0-39.417969 5.199219-52.238281 10.226563-12.324219 4.835937-23.964844 9.402343-47.855469 9.402343-23.886719 0-35.550781-4.578125-47.910156-9.421875-11.863281-4.652344-24.132813-9.460937-46.585938-10.199218l-.394531 11.992187c20.390625.671875 31.179688 4.902344 42.597656 9.382813 12.851563 5.039062 26.144532 10.246093 52.292969 10.246093s39.414063-5.199219 52.234375-10.226562c12.324219-4.832031 23.96875-9.398438 47.855469-9.398438 23.652343 0 35.242187 4.621094 47.511719 9.511719 9.671874 3.855469 19.671874 7.839844 35.332031 9.546875l1.300781-11.929687c-14.035156-1.527344-22.851562-5.042969-32.1875-8.765626-12.78125-5.097656-26-10.367187-51.953125-10.367187zm0 0" fill="#1ae5be"/><path d="m212.027344 340.769531c11.453125-4.492187 22.273437-8.734375 44.472656-8.734375 21.976562 0 32.75 4.292969 44.15625 8.839844 7.457031 2.972656 15.171875 6.046875 25.933594 7.925781l2.0625-11.820312c-9.535156-1.664063-16.347656-4.378907-23.554688-7.253907-11.957031-4.765624-24.316406-9.691406-48.597656-9.691406-24.46875 0-36.867188 4.859375-48.859375 9.5625-11.457031 4.492188-22.277344 8.738282-44.476563 8.738282-22.199218 0-33.039062-4.253907-44.527343-8.757813-9.863281-3.867187-20.0625-7.867187-37.039063-9.183594l-.929687 11.964844c15.191406 1.175781 24.128906 4.679687 33.589843 8.390625 12.019532 4.710938 24.449219 9.585938 48.90625 9.585938 24.460938 0 36.871094-4.863282 48.863282-9.566407zm0 0" fill="#1ae5be"/><path d="m256.5 380.136719c17.289062 0 27.734375 2.589843 38.09375 6.472656l4.210938-11.234375c-10.019532-3.757812-22.085938-7.238281-42.304688-7.238281-24.464844 0-36.867188 4.863281-48.855469 9.566406-11.457031 4.492187-22.277343 8.734375-44.476562 8.734375-9.058594.144531-18.105469-.8125-26.933594-2.847656l-2.832031 11.664062c9.757812 2.261719 19.753906 3.332032 29.765625 3.183594 24.46875 0 36.867187-4.859375 48.859375-9.5625 11.453125-4.492188 22.273437-8.738281 44.472656-8.738281zm0 0" fill="#1ae5be"/><path d="m209.835938 417.195312c80.503906 0 146-65.492187 146-146 0-61.664062-38.0625-116.148437-95.164063-136.945312v-38.738281c0-3.316407-2.6875-6-6-6h-15.5v-37.921875c0-3.316406-2.6875-6-6-6h-19.625v-39.589844c0-3.3125-2.6875-6-6-6s-6 2.6875-6 6v39.589844h-15.046875c-3.3125 0-6 2.683594-6 6v37.921875h-15.042969c-3.316406 0-6 2.683593-6 6v38.742187c-26.953125 9.957032-50.390625 27.605469-67.410156 50.757813-18.390625 24.964843-28.28125 55.175781-28.210937 86.183593 0 80.507813 65.5 146 146 146zm-17.335938-359.605468h34.667969v31.921875h-34.667969zm-90.777344 134.515625c16.414063-22.34375 39.328125-39.070313 65.613282-47.890625 2.457031-.8125 4.117187-3.113282 4.117187-5.699219v-37.003906h77.214844v37.007812c-.003907 2.589844 1.65625 4.886719 4.117187 5.703125 54.460938 18 91.050782 69.023438 91.050782 126.972656 0 73.890626-60.113282 134-134 134-73.890626 0-134-60.109374-134-134-.0625-28.453124 9.011718-56.179687 25.886718-79.089843zm0 0" fill="#0635c9"/></svg>